<svg width="234" height="128" viewBox="0 0 234 128" fill="none" xmlns="http://www.w3.org/2000/svg">
<g clip-path="url(#clip0_9_40706)">
<path d="M233.197 -0.459961L233.319 34.3681C229.135 33.939 224.946 36.1185 223.013 40.1167C220.548 45.2216 222.696 51.3506 227.802 53.8129C229.604 54.6808 231.533 54.9782 233.383 54.7685L233.5 89.6014L73.8027 90.1378L73.8027 -0.459961H233.197Z" fill="#FFFCAD"/>
<path d="M93.2401 31.5336V51.5182H88.8018V35.4079H85.2708V31.5336H93.2401ZM101.702 47.129L100.182 53.4799H96.9202L97.803 47.129H101.702ZM110.767 30.9941C115.132 30.9941 118.418 34.5006 118.418 41.5136C118.418 48.5021 115.132 52.0087 110.767 52.0087C106.402 52.0087 103.117 48.5021 103.117 41.5136C103.117 34.5006 106.402 30.9941 110.767 30.9941ZM110.767 34.8929C108.805 34.8929 107.334 36.9527 107.334 41.5136C107.334 46.05 108.805 48.1098 110.767 48.1098C112.729 48.1098 114.2 46.05 114.2 41.5136C114.2 36.9527 112.729 34.8929 110.767 34.8929ZM128.032 30.9941C132.397 30.9941 135.683 34.5006 135.683 41.5136C135.683 48.5021 132.397 52.0087 128.032 52.0087C123.668 52.0087 120.382 48.5021 120.382 41.5136C120.382 34.5006 123.668 30.9941 128.032 30.9941ZM128.032 34.8929C126.071 34.8929 124.6 36.9527 124.6 41.5136C124.6 46.05 126.071 48.1098 128.032 48.1098C129.994 48.1098 131.465 46.05 131.465 41.5136C131.465 36.9527 129.994 34.8929 128.032 34.8929ZM145.298 30.9941C149.663 30.9941 152.948 34.5006 152.948 41.5136C152.948 48.5021 149.663 52.0087 145.298 52.0087C140.933 52.0087 137.647 48.5021 137.647 41.5136C137.647 34.5006 140.933 30.9941 145.298 30.9941ZM145.298 34.8929C143.336 34.8929 141.865 36.9527 141.865 41.5136C141.865 46.05 143.336 48.1098 145.298 48.1098C147.259 48.1098 148.731 46.05 148.731 41.5136C148.731 36.9527 147.259 34.8929 145.298 34.8929ZM162.588 39.2332C158.811 39.2332 156.163 37.811 156.163 34.9665C156.163 32.1221 158.811 30.6998 162.588 30.6998C166.364 30.6998 169.012 32.1221 169.012 34.9665C169.012 37.811 166.364 39.2332 162.588 39.2332ZM165.996 43.7205H171.391V30.9205H175.535V47.178H171.391V46.5895H165.996V43.7205ZM162.588 33.7405C161.116 33.7405 160.16 34.1328 160.16 34.9665C160.16 35.8002 161.116 36.1926 162.588 36.1926C164.059 36.1926 165.015 35.8002 165.015 34.9665C165.015 34.1328 164.059 33.7405 162.588 33.7405ZM160.945 48.4041H175.829V51.8615H156.801V45.2163H160.136V43.132H155.133V39.9443H164.77C166.707 39.9443 168.89 39.7481 170.189 39.1841V42.3719C168.89 42.9359 166.781 43.132 164.696 43.132H164.255V46.2952H160.945V48.4041Z" fill="#313135"/>
<path d="M87.0974 21.9473L84.7267 13.2787H85.8163L87.6242 20.295H87.708L89.5399 13.2787H90.7492L92.5931 20.295H92.6649L94.4729 13.2787H95.5625L93.1918 21.9473H92.0783L90.1865 15.0866H90.1147L88.2109 21.9473H87.0974ZM98.6875 22.079C96.8077 22.085 95.6463 20.744 95.6463 18.7504C95.6463 16.7509 96.8256 15.362 98.5917 15.362C99.9566 15.362 101.399 16.2001 101.393 18.6067V19.0378H96.676C96.7298 20.4147 97.532 21.169 98.6875 21.169C99.4657 21.169 99.9566 20.8278 100.196 20.4267H101.298C100.992 21.4145 100.028 22.085 98.6875 22.079ZM96.6819 18.1637H100.352C100.346 17.0802 99.6633 16.272 98.5917 16.272C97.4662 16.272 96.7538 17.158 96.6819 18.1637ZM103.764 13.2787V21.9473H102.734V13.2787H103.764ZM108.062 22.079C106.219 22.085 105.093 20.6781 105.093 18.7265C105.093 16.7509 106.272 15.362 108.039 15.362C109.421 15.362 110.463 16.1822 110.625 17.4094H109.595C109.445 16.8168 108.931 16.272 108.062 16.272C106.901 16.272 106.129 17.2298 106.123 18.6906C106.129 20.1932 106.883 21.157 108.062 21.157C108.829 21.157 109.415 20.744 109.595 20.0316H110.625C110.463 21.193 109.505 22.085 108.062 22.079ZM114.552 22.079C112.78 22.085 111.583 20.744 111.583 18.7265C111.583 16.697 112.78 15.362 114.552 15.362C116.318 15.362 117.503 16.697 117.497 18.7265C117.503 20.744 116.318 22.085 114.552 22.079ZM112.612 18.7265C112.618 20.0256 113.229 21.169 114.552 21.169C115.863 21.169 116.468 20.0256 116.468 18.7265C116.468 17.4334 115.863 16.272 114.552 16.272C113.229 16.272 112.618 17.4334 112.612 18.7265ZM118.85 21.9473V15.4458H119.844V16.4635H119.928C120.197 15.7691 120.826 15.362 121.676 15.362C122.526 15.362 123.107 15.7691 123.412 16.4635H123.484C123.813 15.7931 124.502 15.362 125.436 15.362C126.591 15.362 127.423 16.0684 127.423 17.601V21.9473H126.393V17.613C126.387 16.6551 125.789 16.284 125.076 16.284C124.172 16.284 123.658 16.8946 123.652 17.7207V21.9473H122.61V17.5052C122.616 16.7749 122.089 16.284 121.341 16.284C120.562 16.284 119.88 16.9425 119.88 17.8884V21.9473H118.85ZM131.805 22.079C129.925 22.085 128.764 20.744 128.764 18.7504C128.764 16.7509 129.943 15.362 131.709 15.362C133.074 15.362 134.517 16.2001 134.511 18.6067V19.0378H129.794C129.848 20.4147 130.65 21.169 131.805 21.169C132.584 21.169 133.074 20.8278 133.314 20.4267H134.415C134.11 21.4145 133.146 22.085 131.805 22.079ZM129.8 18.1637H133.47C133.464 17.0802 132.781 16.272 131.709 16.272C130.584 16.272 129.872 17.158 129.8 18.1637Z" fill="#313135"/>
<path d="M91.4856 72.0497V72.6245H88.9533C88.9577 73.5584 90.3137 74.2812 91.728 74.4384L91.4676 75.0041C90.1611 74.838 88.9353 74.2453 88.4953 73.3473C88.0553 74.2453 86.8385 74.838 85.5319 75.0041L85.2715 74.4384C86.6769 74.2768 88.0328 73.5584 88.0373 72.6245H85.5229V72.0497H91.4856ZM84.8584 76.1087V75.5339H92.1591V76.1087H84.8584ZM85.6666 77.5185V76.9438H91.2342V79.6647H90.5247V77.5185H85.6666ZM95.6433 73.8278C95.6388 75.287 96.6311 76.7507 97.8074 77.285L97.3764 77.8418C96.4649 77.4018 95.6792 76.4544 95.2975 75.3184C94.9294 76.5217 94.1436 77.532 93.2097 78.0034L92.7607 77.4107C93.9506 76.8675 94.9339 75.3409 94.9428 73.8278V72.373H95.6433V73.8278ZM98.6785 79.6826V71.6816H99.3879V79.6826H98.6785ZM105.737 73.8278C105.737 75.2331 106.666 76.6834 107.802 77.2401L107.371 77.8059C106.491 77.3479 105.755 76.4005 105.4 75.2915C105.045 76.4678 104.291 77.4781 103.393 77.9585L102.944 77.3928C104.111 76.8181 105.036 75.287 105.045 73.8278V72.373H105.737V73.8278ZM108.538 79.6647V71.6816H109.239V74.9233H110.577V75.5339H109.239V79.6647H108.538ZM118.282 75.6327V76.2164H111.008V75.6327H112.813V74.5057C112.175 74.2588 111.816 73.8547 111.816 73.3159C111.816 72.3775 112.894 71.8387 114.645 71.8342C116.382 71.8387 117.46 72.3775 117.464 73.3159C117.46 73.8502 117.105 74.2543 116.477 74.5057V75.6327H118.282ZM111.888 78.2369C111.883 77.3254 112.912 76.8226 114.645 76.827C116.355 76.8226 117.384 77.3254 117.393 78.2369C117.384 79.1483 116.355 79.6467 114.645 79.6467C112.912 79.6467 111.883 79.1483 111.888 78.2369ZM112.543 73.3159C112.539 73.8996 113.338 74.2363 114.645 74.2408C115.938 74.2363 116.742 73.8996 116.746 73.3159C116.742 72.7412 115.938 72.391 114.645 72.391C113.338 72.391 112.539 72.7412 112.543 73.3159ZM112.606 78.2369C112.597 78.7802 113.365 79.1034 114.645 79.099C115.911 79.1034 116.679 78.7802 116.683 78.2369C116.679 77.6936 115.911 77.3748 114.645 77.3658C113.365 77.3748 112.597 77.6936 112.606 78.2369ZM113.513 75.6327H115.776V74.6943C115.439 74.7572 115.062 74.7886 114.645 74.7886C114.227 74.7886 113.85 74.7572 113.513 74.6988V75.6327ZM127.441 71.6816V74.9323H128.734V75.525H127.441V79.6647H126.741V71.6816H127.441ZM121.317 77.5903C123.378 76.5666 124.5 75.0266 124.662 73.1363H121.685V72.5436H125.376C125.371 74.8021 124.312 76.863 121.712 78.1471L121.317 77.5903ZM135.658 73.9176V74.5013H130.207V71.8432H130.907V73.9176H135.658ZM129.21 76.0189V75.4352H136.493V76.0189H129.21ZM130.09 78.183C130.086 77.2536 131.123 76.7328 132.847 76.7372C134.558 76.7328 135.586 77.2536 135.595 78.183C135.586 79.1079 134.558 79.6288 132.847 79.6288C131.123 79.6288 130.086 79.1079 130.09 78.183ZM130.809 78.183C130.8 78.7398 131.567 79.0765 132.847 79.081C134.113 79.0765 134.881 78.7398 134.885 78.183C134.881 77.6173 134.113 77.2985 132.847 77.294C131.567 77.2985 130.8 77.6173 130.809 78.183Z" fill="#313135"/>
</g>
<g clip-path="url(#clip1_9_40706)">
<path d="M197.197 18.5128L197.319 53.3408C193.135 52.9117 188.946 55.0912 187.013 59.0894C184.548 64.1944 186.696 70.3233 191.802 72.7856C193.604 73.6535 195.533 73.9509 197.383 73.7412L197.5 108.574L37.8027 109.11L37.8027 18.5128H197.197Z" fill="#517FFE"/>
<path d="M57.2401 50.5063V70.491H52.8018V54.3806H49.2708V50.5063H57.2401ZM68.8045 49.9668C73.1693 49.9668 76.4551 53.4733 76.4551 60.4864C76.4551 67.4749 73.1693 70.9814 68.8045 70.9814C64.4398 70.9814 61.1539 67.4749 61.1539 60.4864C61.1539 53.4733 64.4398 49.9668 68.8045 49.9668ZM68.8045 53.8657C66.8428 53.8657 65.3716 55.9254 65.3716 60.4864C65.3716 65.0228 66.8428 67.0825 68.8045 67.0825C70.7662 67.0825 72.2375 65.0228 72.2375 60.4864C72.2375 55.9254 70.7662 53.8657 68.8045 53.8657ZM81.9854 66.1017L80.465 72.4526H77.2037L78.0865 66.1017H81.9854ZM91.0507 49.9668C95.4154 49.9668 98.7013 53.4733 98.7013 60.4864C98.7013 67.4749 95.4154 70.9814 91.0507 70.9814C86.6859 70.9814 83.4001 67.4749 83.4001 60.4864C83.4001 53.4733 86.6859 49.9668 91.0507 49.9668ZM91.0507 53.8657C89.089 53.8657 87.6177 55.9254 87.6177 60.4864C87.6177 65.0228 89.089 67.0825 91.0507 67.0825C93.0124 67.0825 94.4836 65.0228 94.4836 60.4864C94.4836 55.9254 93.0124 53.8657 91.0507 53.8657ZM108.316 49.9668C112.681 49.9668 115.967 53.4733 115.967 60.4864C115.967 67.4749 112.681 70.9814 108.316 70.9814C103.951 70.9814 100.665 67.4749 100.665 60.4864C100.665 53.4733 103.951 49.9668 108.316 49.9668ZM108.316 53.8657C106.354 53.8657 104.883 55.9254 104.883 60.4864C104.883 65.0228 106.354 67.0825 108.316 67.0825C110.278 67.0825 111.749 65.0228 111.749 60.4864C111.749 55.9254 110.278 53.8657 108.316 53.8657ZM125.581 49.9668C129.946 49.9668 133.232 53.4733 133.232 60.4864C133.232 67.4749 129.946 70.9814 125.581 70.9814C121.217 70.9814 117.931 67.4749 117.931 60.4864C117.931 53.4733 121.217 49.9668 125.581 49.9668ZM125.581 53.8657C123.62 53.8657 122.148 55.9254 122.148 60.4864C122.148 65.0228 123.62 67.0825 125.581 67.0825C127.543 67.0825 129.014 65.0228 129.014 60.4864C129.014 55.9254 127.543 53.8657 125.581 53.8657ZM142.871 58.2059C139.095 58.2059 136.447 56.7837 136.447 53.9392C136.447 51.0948 139.095 49.6726 142.871 49.6726C146.647 49.6726 149.296 51.0948 149.296 53.9392C149.296 56.7837 146.647 58.2059 142.871 58.2059ZM146.28 62.6933H151.674V49.8933H155.818V66.1507H151.674V65.5622H146.28V62.6933ZM142.871 52.7132C141.4 52.7132 140.444 53.1055 140.444 53.9392C140.444 54.7729 141.4 55.1653 142.871 55.1653C144.342 55.1653 145.299 54.7729 145.299 53.9392C145.299 53.1055 144.342 52.7132 142.871 52.7132ZM141.228 67.3768H156.113V70.8342H137.084V64.189H140.419V62.1047H135.417V58.917H145.054C146.991 58.917 149.173 58.7208 150.473 58.1569V61.3446C149.173 61.9086 147.064 62.1047 144.98 62.1047H144.539V65.268H141.228V67.3768Z" fill="white"/>
<path d="M51.0974 40.92L48.7267 32.2514H49.8163L51.6242 39.2677H51.708L53.5399 32.2514H54.7492L56.5931 39.2677H56.6649L58.4729 32.2514H59.5625L57.1918 40.92H56.0783L54.1865 34.0594H54.1147L52.2109 40.92H51.0974ZM62.6875 41.0517C60.8077 41.0577 59.6463 39.7167 59.6463 37.7231C59.6463 35.7236 60.8256 34.3347 62.5917 34.3347C63.9566 34.3347 65.3994 35.1729 65.3934 37.5795V38.0105H60.676C60.7298 39.3874 61.532 40.1417 62.6875 40.1417C63.4657 40.1417 63.9566 39.8005 64.1961 39.3994H65.2976C64.9923 40.3872 64.0285 41.0577 62.6875 41.0517ZM60.6819 37.1365H64.3517C64.3457 36.0529 63.6633 35.2447 62.5917 35.2447C61.4662 35.2447 60.7538 36.1307 60.6819 37.1365ZM67.7641 32.2514V40.92H66.7344V32.2514H67.7641ZM72.0625 41.0517C70.2186 41.0577 69.0931 39.6508 69.0931 37.6992C69.0931 35.7236 70.2725 34.3347 72.0385 34.3347C73.4214 34.3347 74.4631 35.1549 74.6247 36.3821H73.595C73.4454 35.7895 72.9305 35.2447 72.0625 35.2447C70.9011 35.2447 70.1288 36.2025 70.1228 37.6633C70.1288 39.1659 70.8831 40.1298 72.0625 40.1298C72.8287 40.1298 73.4154 39.7167 73.595 39.0043H74.6247C74.4631 40.1657 73.5052 41.0577 72.0625 41.0517ZM78.5519 41.0517C76.7799 41.0577 75.5826 39.7167 75.5826 37.6992C75.5826 35.6697 76.7799 34.3347 78.5519 34.3347C80.318 34.3347 81.5033 35.6697 81.4973 37.6992C81.5033 39.7167 80.318 41.0577 78.5519 41.0517ZM76.6123 37.6992C76.6183 38.9983 77.2289 40.1417 78.5519 40.1417C79.863 40.1417 80.4676 38.9983 80.4676 37.6992C80.4676 36.4061 79.863 35.2447 78.5519 35.2447C77.2289 35.2447 76.6183 36.4061 76.6123 37.6992ZM82.8503 40.92V34.4185H83.8441V35.4363H83.9279C84.1973 34.7418 84.8259 34.3347 85.676 34.3347C86.5261 34.3347 87.1068 34.7418 87.4121 35.4363H87.4839C87.8132 34.7658 88.5016 34.3347 89.4355 34.3347C90.591 34.3347 91.4231 35.0412 91.4231 36.5737V40.92H90.3934V36.5857C90.3874 35.6278 89.7888 35.2567 89.0763 35.2567C88.1724 35.2567 87.6575 35.8673 87.6515 36.6935V40.92H86.6099V36.4779C86.6159 35.7476 86.089 35.2567 85.3407 35.2567C84.5625 35.2567 83.88 35.9152 83.88 36.8611V40.92H82.8503ZM95.8053 41.0517C93.9255 41.0577 92.7641 39.7167 92.7641 37.7231C92.7641 35.7236 93.9434 34.3347 95.7095 34.3347C97.0744 34.3347 98.5172 35.1729 98.5112 37.5795V38.0105H93.7938C93.8477 39.3874 94.6499 40.1417 95.8053 40.1417C96.5835 40.1417 97.0744 39.8005 97.3139 39.3994H98.4154C98.1101 40.3872 97.1463 41.0577 95.8053 41.0517ZM93.7998 37.1365H97.4695C97.4636 36.0529 96.7811 35.2447 95.7095 35.2447C94.584 35.2447 93.8716 36.1307 93.7998 37.1365Z" fill="white"/>
<path d="M51.265 97.9998C50.0932 97.9998 49.2042 97.277 49.1548 96.2757H49.936C49.9944 96.8549 50.5601 97.2859 51.265 97.2904C52.1092 97.2859 52.7198 96.6708 52.7198 95.8536C52.7198 95.0095 52.0867 94.3854 51.2112 94.3809C50.6634 94.372 50.2368 94.5426 49.9989 94.9646H49.2176L49.6756 91.4086H53.1957V92.127H50.3491L50.1066 94.0307H50.1695C50.4613 93.8062 50.8969 93.6536 51.3548 93.6536C52.5941 93.6536 53.5055 94.5695 53.51 95.8357C53.5055 97.0929 52.5626 97.9998 51.265 97.9998ZM58.3771 91.3817V95.0544H54.6864V91.3817H58.3771ZM55.3778 94.4887H57.6946V91.9564H55.3778V94.4887ZM55.5933 98.4668V95.9524H56.2848V97.8741H60.9543V98.4668H55.5933ZM59.8857 96.5092V90.6543H60.5862V93.0878H61.7895V93.6805H60.5862V96.5092H59.8857ZM71.1824 90.6633V96.7247H70.473V95.8985H68.8207V95.3867H70.473V90.6633H71.1824ZM64.5553 94.363C66.0414 94.354 68.044 94.3405 69.7546 94.1295L69.7995 94.6414C69.0901 94.7536 68.3403 94.8254 67.6084 94.8703V96.4463H66.899V94.9063C66.0908 94.9377 65.3231 94.9377 64.654 94.9377L64.5553 94.363ZM65.2018 92.3784C65.1973 91.5388 65.9965 90.9865 67.1774 90.9865C68.3493 90.9865 69.1485 91.5388 69.153 92.3784C69.1485 93.2315 68.3493 93.7613 67.1774 93.7613C65.9965 93.7613 65.1973 93.2315 65.2018 92.3784ZM65.7047 98.4668V96.132H66.4141V97.8741H71.38V98.4668H65.7047ZM65.8753 92.3784C65.8663 92.8993 66.3961 93.236 67.1774 93.2405C67.9362 93.236 68.475 92.8993 68.4795 92.3784C68.475 91.8666 67.9362 91.5164 67.1774 91.5253C66.3961 91.5164 65.8663 91.8666 65.8753 92.3784ZM81.4375 90.6543V98.6554H80.728V90.6543H81.4375ZM75.1515 94.0577C75.156 92.3605 76.0001 91.2784 77.19 91.2739C78.3753 91.2784 79.2329 92.3605 79.2284 94.0577C79.2329 95.7594 78.3753 96.8369 77.19 96.8324C76.0001 96.8369 75.156 95.7594 75.1515 94.0577ZM75.834 94.0577C75.834 95.3553 76.3908 96.2083 77.19 96.2039C77.9937 96.2083 78.5459 95.3553 78.5459 94.0577C78.5459 92.7601 77.9937 91.907 77.19 91.9025C76.3908 91.907 75.834 92.7601 75.834 94.0577ZM85.4694 91.9474C85.4694 93.034 86.2956 94.0307 87.454 94.4258L87.0678 94.9826C86.1878 94.6593 85.4919 93.9993 85.1417 93.1642C84.8004 94.1115 84.0865 94.8434 83.1526 95.2071L82.7755 94.6414C83.9698 94.1969 84.7735 93.1282 84.778 91.8935V91.0674H85.4694V91.9474ZM83.8351 97.1647C83.8396 96.2532 84.8408 95.7189 86.4841 95.7189C88.123 95.7189 89.1153 96.2532 89.1153 97.1647C89.1153 98.0941 88.123 98.6194 86.4841 98.6194C84.8408 98.6194 83.8396 98.0941 83.8351 97.1647ZM84.5445 97.1647C84.5355 97.7304 85.2808 98.0582 86.4841 98.0627C87.6919 98.0582 88.4283 97.7304 88.4328 97.1647C88.4283 96.6214 87.6919 96.2847 86.4841 96.2847C85.2808 96.2847 84.5355 96.6214 84.5445 97.1647ZM88.343 95.5124V90.6543H89.0434V92.7376H90.2467V93.3303H89.0434V95.5124H88.343ZM99.3703 91.1751V91.8756C99.3703 92.6299 99.3703 93.4605 99.1413 94.6054H100.331V95.1891H97.0355V98.6554H96.3261V95.1891H93.0574V94.6054H98.4274C98.6699 93.456 98.6699 92.6209 98.6699 91.8756V91.7588H93.9734V91.1751H99.3703ZM107.847 90.6543V98.6374H107.165V94.4079H106.051V98.2333H105.378V90.8249H106.051V93.8242H107.165V90.6543H107.847ZM101.301 96.4912V91.5882H104.354V96.4912H101.301ZM101.965 95.9255H103.69V92.1539H101.965V95.9255ZM114.097 92.8005C114.093 94.2597 115.085 95.7234 116.261 96.2577L115.83 96.8145C114.919 96.3745 114.133 95.4271 113.752 94.2911C113.383 95.4944 112.598 96.5047 111.664 96.9761L111.215 96.3835C112.405 95.8402 113.388 94.3136 113.397 92.8005V91.3457H114.097V92.8005ZM117.132 98.6554V90.6543H117.842V98.6554H117.132ZM124.289 92.127C124.289 93.1642 125.089 94.1564 126.256 94.5605L125.888 95.1173C124.99 94.794 124.294 94.125 123.953 93.3034C123.607 94.2193 122.866 94.9557 121.919 95.3059L121.551 94.7491C122.727 94.3271 123.58 93.2629 123.58 92.136V91.7858H121.775V91.211H126.076V91.7858H124.289V92.127ZM122.763 96.4463V95.8626H128.133V98.6374H127.423V96.4463H122.763ZM125.825 93.3393V92.7466H127.423V90.6543H128.133V95.4406H127.423V93.3393H125.825ZM136.736 94.6054V95.1891H129.462V94.6054H131.267V93.4785C130.629 93.2315 130.27 92.8274 130.27 92.2886C130.27 91.3502 131.348 90.8114 133.099 90.8069C134.836 90.8114 135.914 91.3502 135.918 92.2886C135.914 92.8229 135.559 93.227 134.931 93.4785V94.6054H136.736ZM130.342 97.2096C130.337 96.2981 131.366 95.7953 133.099 95.7998C134.809 95.7953 135.838 96.2981 135.847 97.2096C135.838 98.1211 134.809 98.6194 133.099 98.6194C131.366 98.6194 130.337 98.1211 130.342 97.2096ZM130.997 92.2886C130.993 92.8723 131.792 93.2091 133.099 93.2136C134.392 93.2091 135.196 92.8723 135.2 92.2886C135.196 91.7139 134.392 91.3637 133.099 91.3637C131.792 91.3637 130.993 91.7139 130.997 92.2886ZM131.06 97.2096C131.051 97.7529 131.819 98.0762 133.099 98.0717C134.365 98.0762 135.133 97.7529 135.137 97.2096C135.133 96.6663 134.365 96.3475 133.099 96.3386C131.819 96.3475 131.051 96.6663 131.06 97.2096ZM131.967 94.6054H134.23V93.667C133.893 93.7299 133.516 93.7613 133.099 93.7613C132.681 93.7613 132.304 93.7299 131.967 93.6715V94.6054Z" fill="white"/>
</g>
<g clip-path="url(#clip2_9_40706)">
<path d="M159.197 36.9423L159.319 71.7703C155.135 71.3413 150.946 73.5208 149.013 77.5189C146.548 82.6239 148.696 88.7528 153.802 91.2151C155.604 92.083 157.533 92.3805 159.383 92.1708L159.5 127.004L-0.197266 127.54L-0.197303 36.9423H159.197Z" fill="#85A9FF"/>
<path d="M19.8534 68.9341V88.9187H15.4151V72.8084H11.8841V68.9341H19.8534ZM31.1481 89.3847C26.9795 89.3847 23.571 86.6628 23.571 82.3961C23.571 80.459 24.2086 78.9632 25.3856 77.0996L30.535 68.9341H35.5864L31.05 75.7019C31.1726 75.6528 31.3933 75.6038 31.614 75.6038C35.5128 75.6038 38.7251 78.3256 38.7251 82.3716C38.7251 86.4666 35.3412 89.3847 31.1481 89.3847ZM31.1481 85.6084C33.1343 85.6084 34.3848 84.2107 34.3848 82.4207C34.3848 80.6306 33.1343 79.2329 31.1481 79.2329C29.1618 79.2329 27.9113 80.6306 27.9113 82.4207C27.9113 84.2107 29.1618 85.6084 31.1481 85.6084ZM44.7184 84.5295L43.1981 90.8804H39.9368L40.8195 84.5295H44.7184ZM53.7837 68.3946C58.1484 68.3946 61.4343 71.9011 61.4343 78.9142C61.4343 85.9027 58.1484 89.4092 53.7837 89.4092C49.4189 89.4092 46.1331 85.9027 46.1331 78.9142C46.1331 71.9011 49.4189 68.3946 53.7837 68.3946ZM53.7837 72.2935C51.822 72.2935 50.3507 74.3532 50.3507 78.9142C50.3507 83.4506 51.822 85.5103 53.7837 85.5103C55.7454 85.5103 57.2166 83.4506 57.2166 78.9142C57.2166 74.3532 55.7454 72.2935 53.7837 72.2935ZM71.049 68.3946C75.4138 68.3946 78.6996 71.9011 78.6996 78.9142C78.6996 85.9027 75.4138 89.4092 71.049 89.4092C66.6843 89.4092 63.3984 85.9027 63.3984 78.9142C63.3984 71.9011 66.6843 68.3946 71.049 68.3946ZM71.049 72.2935C69.0873 72.2935 67.6161 74.3532 67.6161 78.9142C67.6161 83.4506 69.0873 85.5103 71.049 85.5103C73.0107 85.5103 74.482 83.4506 74.482 78.9142C74.482 74.3532 73.0107 72.2935 71.049 72.2935ZM88.3143 68.3946C92.6791 68.3946 95.9649 71.9011 95.9649 78.9142C95.9649 85.9027 92.6791 89.4092 88.3143 89.4092C83.9496 89.4092 80.6638 85.9027 80.6638 78.9142C80.6638 71.9011 83.9496 68.3946 88.3143 68.3946ZM88.3143 72.2935C86.3527 72.2935 84.8814 74.3532 84.8814 78.9142C84.8814 83.4506 86.3527 85.5103 88.3143 85.5103C90.276 85.5103 91.7473 83.4506 91.7473 78.9142C91.7473 74.3532 90.276 72.2935 88.3143 72.2935ZM105.604 76.6337C101.828 76.6337 99.1797 75.2115 99.1797 72.367C99.1797 69.5226 101.828 68.1004 105.604 68.1004C109.38 68.1004 112.029 69.5226 112.029 72.367C112.029 75.2115 109.38 76.6337 105.604 76.6337ZM109.013 81.121H114.407V68.321H118.551V84.5785H114.407V83.99H109.013V81.121ZM105.604 71.141C104.133 71.141 103.177 71.5333 103.177 72.367C103.177 73.2007 104.133 73.5931 105.604 73.5931C107.075 73.5931 108.032 73.2007 108.032 72.367C108.032 71.5333 107.075 71.141 105.604 71.141ZM103.961 85.8046H118.846V89.262H99.8172V82.6168H103.152V80.5325H98.1498V77.3448H107.787C109.724 77.3448 111.906 77.1486 113.206 76.5846V79.7724C111.906 80.3364 109.797 80.5325 107.713 80.5325H107.272V83.6958H103.961V85.8046Z" fill="white"/>
<path d="M13.7107 59.3495L11.34 50.681H12.4296L14.2375 57.6972H14.3213L16.1532 50.681H17.3625L19.2064 57.6972H19.2782L21.0862 50.681H22.1757L19.805 59.3495H18.6915L16.7998 52.4889H16.7279L14.8242 59.3495H13.7107ZM25.3007 59.4813C23.4209 59.4872 22.2595 58.1462 22.2595 56.1527C22.2595 54.1532 23.4389 52.7643 25.205 52.7643C26.5699 52.7643 28.0127 53.6024 28.0067 56.009V56.4401H23.2892C23.3431 57.817 24.1453 58.5713 25.3007 58.5713C26.079 58.5713 26.5699 58.2301 26.8094 57.829H27.9109C27.6056 58.8167 26.6417 59.4872 25.3007 59.4813ZM23.2952 55.566H26.965C26.959 54.4825 26.2766 53.6743 25.205 53.6743C24.0795 53.6743 23.3671 54.5603 23.2952 55.566ZM30.3774 50.681V59.3495H29.3477V50.681H30.3774ZM34.6757 59.4813C32.8319 59.4872 31.7064 58.0804 31.7064 56.1288C31.7064 54.1532 32.8857 52.7643 34.6518 52.7643C36.0347 52.7643 37.0764 53.5845 37.238 54.8117H36.2083C36.0586 54.219 35.5438 53.6743 34.6757 53.6743C33.5143 53.6743 32.7421 54.6321 32.7361 56.0928C32.7421 57.5955 33.4964 58.5593 34.6757 58.5593C35.442 58.5593 36.0287 58.1462 36.2083 57.4338H37.238C37.0764 58.5952 36.1185 59.4872 34.6757 59.4813ZM41.1652 59.4813C39.3932 59.4872 38.1959 58.1462 38.1959 56.1288C38.1959 54.0993 39.3932 52.7643 41.1652 52.7643C42.9312 52.7643 44.1166 54.0993 44.1106 56.1288C44.1166 58.1462 42.9312 59.4872 41.1652 59.4813ZM39.2255 56.1288C39.2315 57.4279 39.8422 58.5713 41.1652 58.5713C42.4763 58.5713 43.0809 57.4279 43.0809 56.1288C43.0809 54.8357 42.4763 53.6743 41.1652 53.6743C39.8422 53.6743 39.2315 54.8357 39.2255 56.1288ZM45.4636 59.3495V52.8481H46.4573V53.8658H46.5412C46.8106 53.1714 47.4391 52.7643 48.2892 52.7643C49.1393 52.7643 49.72 53.1714 50.0254 53.8658H50.0972C50.4265 53.1953 51.1149 52.7643 52.0488 52.7643C53.2042 52.7643 54.0364 53.4707 54.0364 55.0033V59.3495H53.0067V55.0153C53.0007 54.0574 52.402 53.6862 51.6896 53.6862C50.7857 53.6862 50.2708 54.2969 50.2648 55.123V59.3495H49.2232V54.9075C49.2291 54.1771 48.7023 53.6862 47.954 53.6862C47.1757 53.6862 46.4933 54.3448 46.4933 55.2906V59.3495H45.4636ZM58.4186 59.4813C56.5388 59.4872 55.3774 58.1462 55.3774 56.1527C55.3774 54.1532 56.5567 52.7643 58.3228 52.7643C59.6877 52.7643 61.1305 53.6024 61.1245 56.009V56.4401H56.4071C56.4609 57.817 57.2631 58.5713 58.4186 58.5713C59.1968 58.5713 59.6877 58.2301 59.9272 57.829H61.0287C60.7234 58.8167 59.7596 59.4872 58.4186 59.4813ZM56.413 55.566H60.0828C60.0768 54.4825 59.3944 53.6743 58.3228 53.6743C57.1973 53.6743 56.4849 54.5603 56.413 55.566Z" fill="white"/>
<path d="M16.3029 111.886C16.1143 110.988 15.3465 110.503 14.489 110.503C13.3126 110.503 12.4011 111.41 12.3966 113.089C12.4011 114.764 13.3126 115.671 14.489 115.675C15.3465 115.671 16.1098 115.19 16.3029 114.301H17.1111C16.8776 115.63 15.809 116.43 14.489 116.43C12.8187 116.43 11.6109 115.146 11.6154 113.089C11.6109 111.033 12.8187 109.749 14.489 109.749C15.8045 109.749 16.8686 110.534 17.1111 111.886H16.3029ZM20.1373 116.439C18.8083 116.443 17.9103 115.437 17.9103 113.924C17.9103 112.402 18.8083 111.401 20.1373 111.401C21.4618 111.401 22.3508 112.402 22.3464 113.924C22.3508 115.437 21.4618 116.443 20.1373 116.439ZM18.6826 113.924C18.6871 114.899 19.145 115.756 20.1373 115.756C21.1206 115.756 21.5741 114.899 21.5741 113.924C21.5741 112.954 21.1206 112.083 20.1373 112.083C19.145 112.083 18.6871 112.954 18.6826 113.924ZM26.4412 114.337V111.464H27.2045V116.34H26.4412V115.514H26.3873C26.1583 116.008 25.6734 116.403 24.9415 116.403C24.0166 116.403 23.3566 115.801 23.3611 114.562V111.464H24.1334V114.508C24.1334 115.208 24.5689 115.662 25.193 115.657C25.7452 115.662 26.4367 115.249 26.4412 114.337ZM28.4437 118.172V111.464H29.189V112.236H29.2788C29.445 111.976 29.7413 111.401 30.6887 111.401C31.9144 111.401 32.763 112.371 32.763 113.915C32.763 115.464 31.9144 116.443 30.6976 116.439C29.7682 116.443 29.445 115.864 29.2788 115.595H29.216V118.172H28.4437ZM29.198 113.897C29.2025 114.993 29.6919 115.747 30.5899 115.747C31.5148 115.747 31.9907 114.934 31.9907 113.897C31.9907 112.878 31.5283 112.092 30.5899 112.092C29.6784 112.092 29.2025 112.815 29.198 113.897ZM35.7623 116.439C34.4333 116.443 33.5353 115.437 33.5353 113.924C33.5353 112.402 34.4333 111.401 35.7623 111.401C37.0868 111.401 37.9758 112.402 37.9714 113.924C37.9758 115.437 37.0868 116.443 35.7623 116.439ZM34.3076 113.924C34.312 114.899 34.77 115.756 35.7623 115.756C36.7456 115.756 37.1991 114.899 37.1991 113.924C37.1991 112.954 36.7456 112.083 35.7623 112.083C34.77 112.083 34.312 112.954 34.3076 113.924ZM39.7584 113.412V116.34H38.9861V111.464H39.7314V112.227H39.7943C40.0233 111.729 40.4812 111.401 41.2221 111.401C42.2099 111.401 42.8699 112.003 42.8654 113.242V116.34H42.0931V113.296C42.0931 112.541 41.68 112.092 40.9886 112.092C40.2792 112.092 39.7584 112.568 39.7584 113.412ZM46.5112 116.34V109.838H48.7203C50.2424 109.838 50.9383 110.745 50.9383 111.904C50.9383 113.058 50.2424 113.978 48.7293 113.978H47.3194V116.34H46.5112ZM47.3194 113.26H48.6933C49.7305 113.26 50.1346 112.676 50.1391 111.904C50.1346 111.127 49.7305 110.557 48.6844 110.557H47.3194V113.26ZM51.7285 114.957C51.7285 113.839 52.7163 113.583 53.5604 113.52C53.8747 113.498 54.6605 113.453 54.8805 113.448V113.053C54.8805 112.434 54.5123 112.074 53.776 112.074C53.1608 112.074 52.7882 112.357 52.6804 112.73H51.8722C51.971 111.944 52.7343 111.401 53.8119 111.401C54.4494 111.401 55.6483 111.589 55.6438 113.125V116.34H54.8805V115.675H54.8446C54.6829 116.003 54.2384 116.452 53.3898 116.457C52.4649 116.452 51.7285 115.909 51.7285 114.957ZM52.5008 114.993C52.5053 115.509 52.9318 115.77 53.5245 115.765C54.3956 115.77 54.8805 115.186 54.8805 114.571V114.081C54.6515 114.095 53.8837 114.153 53.6502 114.167C52.9498 114.212 52.5053 114.459 52.5008 114.993ZM58.8765 116.439C57.4936 116.443 56.6495 115.388 56.6495 113.924C56.6495 112.443 57.534 111.401 58.8586 111.401C59.8957 111.401 60.677 112.016 60.7982 112.936H60.0259C59.9137 112.492 59.5276 112.083 58.8765 112.083C58.0055 112.083 57.4263 112.802 57.4218 113.897C57.4263 115.024 57.992 115.747 58.8765 115.747C59.4512 115.747 59.8913 115.437 60.0259 114.903H60.7982C60.677 115.774 59.9586 116.443 58.8765 116.439ZM61.7501 116.34V109.838H62.5224V113.619H62.6122L64.7224 111.464H65.6743L63.6179 113.552L65.827 116.34H64.8482L63.0387 114.041L62.5224 114.521V116.34H61.7501Z" fill="white"/>
</g>
<defs>
<clipPath id="clip0_9_40706">
<rect width="160" height="90.5977" fill="white" transform="translate(74)"/>
</clipPath>
<clipPath id="clip1_9_40706">
<rect width="160" height="90.5977" fill="white" transform="translate(38 18.9727)"/>
</clipPath>
<clipPath id="clip2_9_40706">
<rect width="160" height="90.5977" fill="white" transform="translate(0 37.4023)"/>
</clipPath>
</defs>
</svg>
